<svg width="98" height="68" xmlns="http://www.w3.org/2000/svg">
 <!-- Generator: Sketch 39.1 (31720) - http://www.bohemiancoding.com/sketch -->
 <title>Combined Shape</title>
 <desc>Created with Sketch.</desc>
 <defs>
  <path id="path-1" d="m2,4.037819l7.919395,0l0,15.97628l10.226007,0l0,7.699411l-10.226007,0l0,15.976278l-7.919395,0l0,-39.65197zm37.008446,31.006783l0,-30.951787l-7.919397,0l0,39.596975l7.919397,0l0,-0.459003c0.486641,-1.673119 1.488079,-2.509666 3.004333,-2.509666c0.81197,0 1.485523,0.25835 2.020683,0.775059c0.535164,0.516705 0.802738,1.199486 0.802738,2.048363c0,1.107231 -0.415203,2.195988 -1.245625,3.266312c-0.830425,1.07032 -2.362068,2.491245 -4.594982,4.26281c-2.23291,1.771568 -4.078266,3.783005 -5.536118,6.03437c-1.457851,2.251369 -2.186768,4.594967 -2.186768,7.030876l21.701588,0l0,-6.034374l-11.958019,0c0.442894,-0.811966 1.716187,-2.048355 3.819923,-3.709198c2.952614,-2.325184 4.945595,-4.216671 5.979012,-5.674522c1.033413,-1.457851 1.55011,-3.146351 1.55011,-5.065552c0,-2.694256 -0.894997,-4.862549 -2.685017,-6.50494c-1.79002,-1.642387 -4.198208,-2.463573 -7.224636,-2.463573c-1.253025,0 -2.4021,0.119286 -3.447224,0.357853zm33.567009,-34.044601l0.316925,0c7.014641,0 13.004463,2.873424 17.969643,8.620358c3.211525,4.310201 4.817261,9.000644 4.817261,14.071467l0,0.316925c0,7.014641 -2.936806,12.972771 -8.810509,17.874565c-4.267944,3.169266 -8.947823,4.753876 -14.03978,4.753876l-0.316925,0c-6.972382,0 -12.941074,-2.852295 -17.906258,-8.556973c-1.732533,-2.429771 -2.947399,-4.658787 -3.644638,-6.687117c-0.824009,-2.535414 -1.236008,-5.017967 -1.236008,-7.447737l0,-0.316925c0,-6.887871 2.841732,-12.782615 8.525284,-17.684412c3.845375,-2.746696 7.352638,-4.289049 10.521904,-4.627104c0.971909,-0.211284 2.239601,-0.316925 3.803101,-0.316925zm-13.722847,22.755211c0,3.972145 1.552914,7.458284 4.658794,10.458523c2.767826,2.366386 5.672939,3.549561 8.715435,3.549561l0.88739,0c2.450897,0 4.944016,-0.83456 7.479431,-2.503708c2.619926,-1.922688 4.394684,-4.373549 5.324341,-7.352659c0.295792,-0.781752 0.507072,-2.123386 0.63385,-4.024946c0,-3.887632 -1.510666,-7.320951 -4.532028,-10.30006c-2.831215,-2.514285 -5.937042,-3.771408 -9.317596,-3.771408c-3.951019,0 -7.458282,1.647994 -10.521908,4.94403c-1.288834,1.690274 -2.102264,3.126987 -2.440323,4.31018c-0.591595,1.648018 -0.887386,3.211498 -0.887386,4.690489z"/>
 </defs>
 <g>
  <title>background</title>
  <rect fill="none" id="canvas_background" height="70" width="297" y="-1" x="-1"/>
 </g>
 <g>
  <title>Layer 1</title>
  <ellipse fill-opacity="0" ry="32" rx="32" id="svg_3" cy="34.000032" cx="34.167029" stroke-width="1.5" stroke="#ffffff" fill="#131313"/>
  <text xml:space="preserve" text-anchor="start" font-family="Helvetica, Arial, sans-serif" font-size="45" id="svg_5" y="46.166276" x="12.751158" stroke-width="0" stroke="#ff0000" fill="#ffffff">{ }</text>
 </g>
</svg>