<svg width="68" height="68" xmlns="http://www.w3.org/2000/svg">
 <!-- Generator: Sketch 39.1 (31720) - http://www.bohemiancoding.com/sketch -->
 <title>Combined Shape</title>
 <desc>Created with Sketch.</desc>
 <defs>
  <path id="path-1" d="m2,4.03782l7.91939,0l0,15.97628l10.22601,0l0,7.69941l-10.22601,0l0,15.97628l-7.91939,0l0,-39.65197l0,0zm37.00845,31.00678l0,-30.95179l-7.9194,0l0,39.59698l7.9194,0l0,-0.459c0.48664,-1.67312 1.48807,-2.50967 3.00433,-2.50967c0.81197,0 1.48552,0.25835 2.02068,0.77506c0.53517,0.5167 0.80274,1.19949 0.80274,2.04836c0,1.10723 -0.4152,2.19599 -1.24562,3.26631c-0.83043,1.07032 -2.36207,2.49125 -4.59499,4.26281c-2.23291,1.77157 -4.07826,3.78301 -5.53612,6.03437c-1.45785,2.25137 -2.18676,4.59497 -2.18676,7.03088l21.70158,0l0,-6.03437l-11.95802,0c0.4429,-0.81197 1.71619,-2.04836 3.81993,-3.7092c2.95261,-2.32519 4.94559,-4.21667 5.97901,-5.67452c1.03341,-1.45785 1.55011,-3.14635 1.55011,-5.06556c0,-2.69425 -0.895,-4.86254 -2.68502,-6.50493c-1.79002,-1.64239 -4.19821,-2.46358 -7.22464,-2.46358c-1.25302,0 -2.4021,0.11929 -3.44722,0.35785l0,0l0.00001,0zm33.56701,-34.0446l0.31692,0c7.01464,0 13.00446,2.87342 17.96964,8.62036c3.21153,4.3102 4.81726,9.00064 4.81726,14.07147l0,0.31692c0,7.01464 -2.9368,12.97277 -8.8105,17.87457c-4.26795,3.16926 -8.94783,4.75387 -14.03978,4.75387l-0.31693,0c-6.97238,0 -12.94107,-2.85229 -17.90626,-8.55697c-1.73253,-2.42977 -2.9474,-4.65879 -3.64464,-6.68712c-0.824,-2.53541 -1.236,-5.01797 -1.236,-7.44774l0,-0.31692c0,-6.88787 2.84173,-12.78262 8.52528,-17.68441c3.84538,-2.7467 7.35264,-4.28905 10.5219,-4.62711c0.97191,-0.21128 2.23961,-0.31692 3.80311,-0.31692l0,0zm-13.72285,22.75521c0,3.97215 1.55291,7.45829 4.65879,10.45852c2.76783,2.36639 5.67294,3.54957 8.71544,3.54957l0.88739,0c2.45089,0 4.94401,-0.83456 7.47943,-2.50371c2.61992,-1.92269 4.39468,-4.37355 5.32434,-7.35266c0.29579,-0.78175 0.50707,-2.12339 0.63385,-4.02495c0,-3.88763 -1.51067,-7.32095 -4.53203,-10.30006c-2.83121,-2.51428 -5.93704,-3.77141 -9.31759,-3.77141c-3.95102,0 -7.45829,1.648 -10.52191,4.94404c-1.28884,1.69027 -2.10227,3.12698 -2.44033,4.31017c-0.59159,1.64802 -0.88738,3.2115 -0.88738,4.6905l0,-0.00001z"/>
 </defs>
 <g>
  <title>background</title>
  <rect fill="none" id="canvas_background" height="70" width="70" y="-1" x="-1"/>
 </g>
 <g>
  <title>Layer 1</title>
  <ellipse ry="32" rx="32" id="svg_3" cy="34.000032" cx="34.167029" stroke-width="1.5" stroke="#434343" fill="#131313"/>
  <text xml:space="preserve" text-anchor="start" font-family="Helvetica, Arial, sans-serif" font-size="45" id="svg_5" y="46.166276" x="12.751158" stroke-width="0" stroke="#ff0000" fill="#00a5f7">{ }</text>
 </g>
</svg>